<?xml version="1.0" encoding="UTF-8" standalone="no"?>
<svg
   version="1.1"
   width="512"
   height="512"
   id="svg87"
   sodipodi:docname="baibot-torso.svg"
   inkscape:version="1.3.2 (091e20ef0f, 2023-11-25, custom)"
   inkscape:export-filename="baibot-torso.png"
   inkscape:export-xdpi="144"
   inkscape:export-ydpi="144"
   xmlns:inkscape="http://www.inkscape.org/namespaces/inkscape"
   xmlns:sodipodi="http://sodipodi.sourceforge.net/DTD/sodipodi-0.dtd"
   xmlns="http://www.w3.org/2000/svg"
   xmlns:svg="http://www.w3.org/2000/svg">
  <defs
     id="defs87" />
  <sodipodi:namedview
     id="namedview87"
     pagecolor="#ffffff"
     bordercolor="#666666"
     borderopacity="1.0"
     inkscape:showpageshadow="2"
     inkscape:pageopacity="0.0"
     inkscape:pagecheckerboard="0"
     inkscape:deskcolor="#d1d1d1"
     inkscape:zoom="1.5744174"
     inkscape:cx="399.51285"
     inkscape:cy="295.34734"
     inkscape:window-width="2560"
     inkscape:window-height="1364"
     inkscape:window-x="0"
     inkscape:window-y="0"
     inkscape:window-maximized="1"
     inkscape:current-layer="svg87" />
  <path
     d="M0 0 C168.96 0 337.92 0 512 0 C512 168.96 512 337.92 512 512 C343.04 512 174.08 512 0 512 C0 343.04 0 174.08 0 0 Z "
     fill="#C0E7F9"
     transform="translate(0,0)"
     id="path1" />
  <path
     d="M0 0 C1.07405846 -0.02234207 1.07405846 -0.02234207 2.16981506 -0.0451355 C4.53501109 -0.08888709 6.89960276 -0.10938967 9.26513672 -0.12597656 C10.91698204 -0.14324675 12.56882734 -0.16051974 14.22067261 -0.17779541 C17.68571765 -0.20929745 21.15055462 -0.22684116 24.61572266 -0.23730469 C29.03483881 -0.25371267 33.45115944 -0.32568899 37.86940193 -0.41122055 C41.284065 -0.4673934 44.69806951 -0.48273169 48.11315536 -0.48731232 C49.74062177 -0.49633576 51.36808177 -0.5202325 52.99509048 -0.55986786 C61.14313168 -0.74411439 67.38466529 -0.77603917 73.83496094 4.91992188 C75.86117145 7.0587339 77.50518628 8.85412256 78.81982422 11.48339844 C81.80422151 12.23329277 84.73610241 12.86077492 87.75732422 13.42089844 C88.6617627 13.59492187 89.56620117 13.76894531 90.49804688 13.94824219 C96.21783929 15.03563239 101.95014484 16.03726972 107.69482422 16.98339844 C108.41138184 17.10207275 109.12793945 17.22074707 109.86621094 17.34301758 C113.10892621 17.87824721 116.35184198 18.40988304 119.59863281 18.91992188 C122.52935923 19.38346763 125.45572068 19.86956779 128.38232422 20.35839844 C129.28644043 20.49568359 130.19055664 20.63296875 131.12207031 20.77441406 C138.69840996 22.0696107 145.4061214 24.19311852 150.08935547 30.57714844 C150.59853516 31.70121094 151.10771484 32.82527344 151.63232422 33.98339844 C151.91309814 34.60013428 152.19387207 35.21687012 152.4831543 35.85229492 C158.30446664 49.00788862 162.81982422 64.99912448 162.81982422 79.48339844 C163.97482422 79.50402344 165.12982422 79.52464844 166.31982422 79.54589844 C171.81050663 80.23101032 175.38860635 83.27352514 178.81982422 87.48339844 C179.81982422 90.92089844 179.81982422 90.92089844 179.81982422 93.48339844 C180.87169922 93.38027344 181.92357422 93.27714844 183.00732422 93.17089844 C186.81982422 93.48339844 186.81982422 93.48339844 189.50732422 95.29589844 C196.36689602 104.7509839 197.02164878 115.29091231 197.06982422 126.54589844 C197.10076172 128.31223633 197.10076172 128.31223633 197.13232422 130.11425781 C197.16600644 137.72222902 196.26159917 144.27779833 193.81982422 151.48339844 C193.59407715 152.18215088 193.36833008 152.88090332 193.13574219 153.60083008 C192.06643936 156.51439691 190.96241761 158.35710143 188.63232422 160.42089844 C184.83392783 161.85584819 181.86693633 161.6891838 177.81982422 161.48339844 C177.44857422 162.81371094 177.44857422 162.81371094 177.06982422 164.17089844 C175.42662718 168.5253706 173.60909505 171.46786634 169.50732422 173.79589844 C165.06746459 174.93167648 161.16501201 174.93179437 156.81982422 173.48339844 C156.77809082 174.1048877 156.73635742 174.72637695 156.69335938 175.36669922 C156.06175321 183.46863094 154.73674523 191.38509194 153.19482422 199.35839844 C153.00040741 200.36987946 153.00040741 200.36987946 152.80206299 201.40179443 C151.07421001 210.28680774 149.04961659 219.00672409 146.19482422 227.60839844 C145.91815918 228.44741699 145.64149414 229.28643555 145.35644531 230.15087891 C143.29849043 235.98398225 141.17713638 240.23802598 135.50732422 243.23339844 C128.77406306 245.51585985 121.77675926 245.76624308 114.72998047 246.23730469 C113.78545517 246.30247787 112.84092987 246.36765106 111.86778259 246.43479919 C108.87278903 246.64090524 105.87756738 246.84345534 102.88232422 247.04589844 C100.84259454 247.185637 98.8028808 247.32560851 96.76318359 247.46582031 C91.78224427 247.80770901 86.8010974 248.14641038 81.81982422 248.48339844 C81.54396484 249.75957031 81.26810547 251.03574219 80.98388672 252.35058594 C80.05977533 256.62568069 78.22992742 257.7912117 74.81982422 260.48339844 C74.62175706 263.56171482 74.62175706 263.56171482 74.81982422 266.48339844 C75.59941498 266.47229538 76.37900574 266.46119232 77.18222046 266.44975281 C84.5665543 266.34913462 91.95055091 266.27322439 99.33539391 266.22433758 C103.1311225 266.19835828 106.9262798 266.16317837 110.72167969 266.10620117 C114.39164382 266.05145835 118.06106211 266.0218904 121.73140335 266.00901222 C123.12435106 265.99984728 124.51727239 265.98195182 125.90998459 265.95474815 C136.45667889 265.75712902 143.72588313 267.51756765 152.18310547 273.84277344 C155.23152463 276.89570877 157.05889858 279.92349516 159.00732422 283.73339844 C161.29925136 288.74467293 161.29925136 288.74467293 165.81982422 291.48339844 C165.73732422 290.76152344 165.65482422 290.03964844 165.56982422 289.29589844 C166.06033612 283.77763953 170.95287369 280.12323286 174.81982422 276.48339844 C182.28875354 270.91013645 188.4126022 269.20484782 197.81982422 270.48339844 C210.2788722 276.00519873 217.1239036 285.74359689 222.02294922 297.99121094 C223.64280982 303.05724558 223.95702447 307.93849071 223.94482422 313.23339844 C223.94740234 314.36261719 223.94998047 315.49183594 223.95263672 316.65527344 C223.81982422 319.48339844 223.81982422 319.48339844 222.81982422 321.48339844 C222.41764031 326.10851337 222.94310969 327.94282671 225.81982422 331.48339844 C226.25294922 332.99933594 226.25294922 332.99933594 226.69482422 334.54589844 C228.09863861 338.21141379 229.48885304 338.57998634 232.81982422 340.48339844 C236.53320606 344.91882674 237.57292324 348.82525102 237.81982422 354.48339844 C237.89716797 355.6396875 237.89716797 355.6396875 237.97607422 356.81933594 C238.21608007 362.83948268 238.21608007 362.83948268 236.31982422 365.92089844 C233.96144189 369.94980158 233.63990053 373.9653362 234.81982422 378.48339844 C236.65320436 380.27692249 238.44320299 381.26338627 240.72607422 382.42089844 C247.2970145 385.75540545 251.06555777 392.80779254 254.13232422 399.23339844 C254.81982422 401.48339844 254.81982422 401.48339844 254.81982422 405.48339844 C109.61982422 405.48339844 -35.58017578 405.48339844 -185.18017578 405.48339844 C-183.14208015 395.29292027 -178.20819905 387.08301216 -170.18017578 380.48339844 C-167.47138243 379.12900176 -165.1708431 379.41838393 -162.18017578 379.48339844 C-162.29416244 377.85758878 -162.42173237 376.23272687 -162.55517578 374.60839844 C-162.62478516 373.70347656 -162.69439453 372.79855469 -162.76611328 371.86621094 C-162.9758571 369.30397941 -162.9758571 369.30397941 -165.18017578 367.48339844 C-166.25534087 359.69693969 -165.30355197 353.28178967 -161.76220703 346.31152344 C-159.7173115 343.94853305 -158.1771474 344.05402183 -155.18017578 343.48339844 C-152.72568731 340.07799887 -152.13485646 336.28403986 -152.36767578 332.17089844 C-153.09451131 329.29753483 -153.09451131 329.29753483 -155.18017578 326.48339844 C-157.1198271 313.42977689 -155.61418036 300.72535099 -148.31298828 289.65136719 C-143.93502744 283.83396008 -139.23553355 278.83518436 -132.18017578 276.48339844 C-124.16307649 275.72398496 -116.72065756 275.20314531 -110.12158203 280.42480469 C-106.56497884 284.19609217 -101.18017578 290.06105874 -101.18017578 295.48339844 C-98.54017578 295.48339844 -95.90017578 295.48339844 -93.18017578 295.48339844 C-93.13892578 294.55527344 -93.09767578 293.62714844 -93.05517578 292.67089844 C-91.82380739 284.35494476 -86.7851413 277.33738441 -80.50048828 272.01855469 C-72.30260447 266.59470226 -66.45996748 265.92879931 -56.71142578 266.09277344 C-55.43537476 266.09843323 -54.15932373 266.10409302 -52.84460449 266.10992432 C-49.4773492 266.12844046 -46.11120987 266.16427754 -42.7442627 266.20874023 C-39.2985185 266.24990413 -35.8526583 266.26798001 -32.40673828 266.28808594 C-25.66424634 266.33206726 -18.92227538 266.39891626 -12.18017578 266.48339844 C-11.9715746 263.58523711 -11.9715746 263.58523711 -12.18017578 260.48339844 C-13.00517578 259.67902344 -13.83017578 258.87464844 -14.68017578 258.04589844 C-17.18017578 255.48339844 -17.18017578 255.48339844 -17.33642578 251.82324219 C-17.28486328 250.72109375 -17.23330078 249.61894531 -17.18017578 248.48339844 C-17.94861816 248.49209961 -18.71706055 248.50080078 -19.50878906 248.50976562 C-29.45736907 248.57036611 -39.37580107 248.28398505 -49.31396484 247.84863281 C-51.15187723 247.77137109 -52.99012771 247.70179443 -54.82861328 247.63964844 C-57.52755893 247.54789958 -60.22457665 247.43225098 -62.92236328 247.31152344 C-63.73397919 247.28842102 -64.54559509 247.2653186 -65.38180542 247.24151611 C-72.37894266 246.88275384 -77.66049637 244.76868906 -82.86767578 240.04589844 C-86.5160906 235.20591379 -88.21134202 229.1437955 -90.18017578 223.48339844 C-90.46892578 222.68417969 -90.75767578 221.88496094 -91.05517578 221.06152344 C-93.18692354 214.97716003 -94.66873753 208.74507118 -96.18017578 202.48339844 C-96.86220112 199.6695334 -97.55112444 196.85743564 -98.24267578 194.04589844 C-98.40501709 193.37163818 -98.5673584 192.69737793 -98.73461914 192.00268555 C-99.421632 189.21171763 -100.14858954 186.55865808 -101.26220703 183.90527344 C-102.37953174 180.95743804 -102.59815323 178.31074043 -102.80517578 175.17089844 C-102.91732422 173.56794922 -102.91732422 173.56794922 -103.03173828 171.93261719 C-103.10521484 170.72025391 -103.10521484 170.72025391 -103.18017578 169.48339844 C-103.68806641 169.64066406 -104.19595703 169.79792969 -104.71923828 169.95996094 C-110.60421267 171.21168565 -118.80178505 172.00514313 -124.42626953 169.47167969 C-128.84970916 165.79834953 -130.44074196 162.02915211 -131.18017578 156.48339844 C-131.78345703 156.46921875 -132.38673828 156.45503906 -133.00830078 156.44042969 C-133.80751953 156.39273438 -134.60673828 156.34503906 -135.43017578 156.29589844 C-136.21908203 156.26109375 -137.00798828 156.22628906 -137.82080078 156.19042969 C-141.2087083 155.17517925 -142.25111624 153.38924871 -144.18017578 150.48339844 C-151.80152803 135.71114779 -149.63351394 115.22591334 -145.54345703 99.69042969 C-143.87281456 95.76035098 -142.21922989 93.49079574 -139.18017578 90.48339844 C-136.94189453 89.89746094 -136.94189453 89.89746094 -134.86767578 90.10839844 C-133.04236328 90.29402344 -133.04236328 90.29402344 -131.18017578 90.48339844 C-131.11830078 89.61714844 -131.05642578 88.75089844 -130.99267578 87.85839844 C-129.77048487 82.78160543 -126.88798822 79.94723767 -122.99267578 76.60839844 C-117.56368764 74.43680318 -111.74728297 75.01686208 -106.18017578 76.48339844 C-106.08583252 75.85900879 -105.99148926 75.23461914 -105.89428711 74.59130859 C-104.55205368 66.45830275 -102.31922159 58.7195536 -99.86767578 50.85839844 C-99.48933594 49.60027344 -99.11099609 48.34214844 -98.72119141 47.04589844 C-92.82121534 27.99825996 -92.82121534 27.99825996 -83.47412109 22.4753418 C-80.3842714 21.13923501 -77.35349784 20.63979085 -74.03955078 20.04980469 C-73.339328 19.92368301 -72.63910522 19.79756134 -71.91766357 19.6676178 C-69.67303339 19.26572551 -67.426871 18.87356879 -65.18017578 18.48339844 C-64.4527417 18.35584167 -63.72530762 18.22828491 -62.97583008 18.09686279 C-57.79658946 17.18920998 -52.61384407 16.30285373 -47.43017578 15.42089844 C-45.91843787 15.16254701 -44.40671907 14.90408371 -42.89501953 14.64550781 C-42.15537964 14.51934586 -41.41573975 14.3931839 -40.65368652 14.26319885 C-39.19680946 14.01413345 -37.7401783 13.7636248 -36.28381348 13.51158142 C-33.05011242 12.95500108 -29.8226291 12.43309121 -26.57275391 11.97583008 C-25.50992188 11.82364014 -24.44708984 11.6714502 -23.35205078 11.51464844 C-21.9845166 11.33579102 -21.9845166 11.33579102 -20.58935547 11.15332031 C-16.99366868 10.15346578 -15.01684836 8.05469897 -12.68017578 5.23730469 C-8.80931658 0.71122192 -5.94565162 0.09416892 0 0 Z "
     fill="#0D1C25"
     transform="translate(231.18017578125,106.5166015625)"
     id="path2" />
  <path
     d="M0 0 C2.71089552 0.31627114 5.09637024 0.71911882 7.72265625 1.3515625 C13.415192 2.64237249 19.16295516 3.42210672 24.9375 4.25 C36.26953933 5.93339142 47.38504217 8.14453963 58.50634766 10.88671875 C60.47259448 11.36940132 62.44487309 11.82737496 64.41796875 12.28125 C65.39378906 12.5184375 66.36960937 12.755625 67.375 13 C68.15101563 13.18691406 68.92703125 13.37382812 69.7265625 13.56640625 C73.53357789 15.20533372 75.35248201 17.59277426 77.09375 21.29296875 C79.92499465 29.45192716 82.10115114 37.58618868 83.953125 46.015625 C84.57265017 49.27671359 84.57265017 49.27671359 85.75 51.4375 C85.89779962 53.4128988 85.97118966 55.39428924 86 57.375 C86.03867187 58.96634766 86.03867187 58.96634766 86.078125 60.58984375 C85.69633979 63.90319393 85.08242042 64.25481521 82.75 66.4375 C81.80851428 69.15094261 81.80851428 69.15094261 81.1875 72.1875 C80.41186538 75.56618066 79.62178302 78.86488993 78.625 82.1875 C76.26551335 90.95130756 76.55089963 99.93136298 76.5625 108.9375 C76.56243958 109.65237579 76.56237915 110.36725159 76.56231689 111.10379028 C76.57674762 123.05628839 77.04831067 134.57981119 79.875 146.25 C82.02780916 155.2215585 80.53497982 164.32025038 78.875 173.25 C78.70097656 174.24708984 78.52695312 175.24417969 78.34765625 176.27148438 C77.47039555 181.15490226 76.44135136 185.76101456 74.75 190.4375 C74.13750679 192.62268321 73.53375967 194.81033153 72.9375 197 C67.43717206 216.31271863 67.43717206 216.31271863 62.75 219.4375 C60.40310507 219.730998 58.04169165 219.91270925 55.6796875 220.03515625 C54.96636261 220.07434677 54.25303772 220.11353729 53.51809692 220.15391541 C51.22075715 220.27781034 48.92299133 220.38892397 46.625 220.5 C45.16401965 220.57797731 43.70308137 220.65674699 42.2421875 220.73632812 C38.28352619 220.94788601 34.32405331 221.13536497 30.36386108 221.3157959 C28.59921995 221.39795943 26.83475152 221.48390714 25.07046509 221.57336426 C6.10917344 222.53364087 -12.83065575 222.59898737 -31.81058884 222.56667709 C-34.3437064 222.5624479 -36.87682303 222.55951667 -39.40994263 222.55679321 C-91.0427267 222.49388542 -91.0427267 222.49388542 -111.2119751 221.52880859 C-113.32767909 221.43401978 -115.44342934 221.36001163 -117.56005859 221.2890625 C-121.67170679 221.14436042 -125.76956459 220.89355587 -129.875 220.625 C-131.05698975 220.58656982 -132.23897949 220.54813965 -133.45678711 220.50854492 C-136.78886895 220.22516993 -139.22995655 219.88095397 -142.25 218.4375 C-145.17194117 214.74611909 -146.7241084 210.8630016 -148.25 206.4375 C-148.54148926 205.65576416 -148.83297852 204.87402832 -149.13330078 204.06860352 C-149.82773718 202.10134506 -150.43023054 200.13149031 -151 198.125 C-151.29197266 197.14950195 -151.29197266 197.14950195 -151.58984375 196.15429688 C-152.15602482 194.25246045 -152.70329468 192.34502617 -153.25 190.4375 C-153.57355469 189.33792969 -153.89710938 188.23835937 -154.23046875 187.10546875 C-155.52528286 182.44711453 -156.68106318 177.76283102 -157.8125 173.0625 C-158.03357422 172.16789063 -158.25464844 171.27328125 -158.48242188 170.3515625 C-158.80243164 169.02125 -158.80243164 169.02125 -159.12890625 167.6640625 C-159.3204126 166.87596191 -159.51191895 166.08786133 -159.70922852 165.27587891 C-161.35648802 156.62981162 -161.33921235 148.13067996 -161.23346901 139.36397552 C-161.20648431 136.99893952 -161.18883137 134.63400179 -161.17399597 132.26885986 C-161.13159865 125.54999413 -161.08396389 118.83132049 -161.00317383 112.11279297 C-160.95421637 107.98510696 -160.92553606 103.85768322 -160.90942955 99.72974396 C-160.89963773 98.17183303 -160.88259292 96.61394769 -160.85764503 95.05620575 C-160.71950676 86.23455866 -161.28632151 78.56585525 -164.39970398 70.16851807 C-165.78538067 65.71794087 -165.07687039 61.93645622 -164.25 57.4375 C-163.89080654 54.89653886 -163.53684773 52.3548335 -163.1875 49.8125 C-162.87708751 47.68719406 -162.56532001 45.56208338 -162.25 43.4375 C-161.59 43.4375 -160.93 43.4375 -160.25 43.4375 C-160.24613281 42.52484375 -160.24613281 42.52484375 -160.2421875 41.59375 C-159.96455841 35.30082385 -158.6097667 29.86418202 -156.4375 24 C-156.18919434 23.31421875 -155.94088867 22.6284375 -155.68505859 21.921875 C-154.13129213 17.91036845 -152.82055768 14.89367981 -149.25 12.4375 C-145.82747102 11.28204921 -142.35321373 10.5720344 -138.8125 9.875 C-137.79929688 9.66447998 -136.78609375 9.45395996 -135.7421875 9.23706055 C-127.92659948 7.65755933 -120.07698199 6.41895578 -112.16625977 5.42553711 C-108.56073743 4.96554079 -105.27078965 4.44374391 -101.77734375 3.39453125 C-97.27062759 2.1717788 -92.96140207 1.98219376 -88.3125 1.8125 C-87.43787109 1.77382812 -86.56324219 1.73515625 -85.66210938 1.6953125 C-83.52505369 1.6018893 -81.38755706 1.51864602 -79.25 1.4375 C-78.88817627 2.50145996 -78.52635254 3.56541992 -78.15356445 4.66162109 C-76.25613981 9.25226145 -74.18761929 13.29140228 -70.25 16.4375 C-63.4592918 18.91559455 -55.9889075 18.4236292 -48.86791992 18.17333984 C-45.45138481 18.06294863 -42.05629353 18.09086449 -38.63867188 18.13671875 C-24.58897168 18.18935975 -24.58897168 18.18935975 -12.98828125 11.1484375 C-11.36084839 9.28566547 -9.77753321 7.38303326 -8.25 5.4375 C-3.72685835 0.50169247 -3.72685835 0.50169247 0 0 Z "
     fill="#FCFCFC"
     transform="translate(299.25,124.5625)"
     id="path3" />
  <path
     d="M0 0 C6.91841565 1.40412134 13.88089054 2.41960078 20.86865234 3.41430664 C22.55099976 3.65745605 22.55099976 3.65745605 24.26733398 3.90551758 C27.84002326 4.4105239 31.41599612 4.88334287 34.99365234 5.35180664 C35.95872711 5.48841202 35.95872711 5.48841202 36.94329834 5.6277771 C49.93333196 7.45474039 62.80480709 7.62933266 75.90917969 7.55761719 C79.38402595 7.53922527 82.85860589 7.53710925 86.33349609 7.53735352 C88.58219628 7.53244081 90.83089469 7.52661357 93.07958984 7.51977539 C94.09862396 7.51866257 95.11765808 7.51754974 96.16757202 7.5164032 C105.93487451 7.45295184 115.45826057 6.74324713 125.05078125 4.88696289 C130.89434175 3.82432106 136.79271459 3.11779438 142.68115234 2.35180664 C144.02588435 2.17639261 145.37061087 2.00093655 146.71533203 1.82543945 C149.32604136 1.48489663 151.93690106 1.14558113 154.54785156 0.80688477 C157.32619142 0.4399565 160.09979453 0.05495635 162.87255859 -0.35131836 C169.79039267 -1.32861076 176.63818524 -1.8852172 183.61865234 -2.02319336 C184.73965332 -2.06234863 184.73965332 -2.06234863 185.88330078 -2.10229492 C191.91897815 -2.12149062 195.30596554 -0.19888642 199.60302734 3.87915039 C204.40628171 9.81742034 205.36019161 13.89884147 204.99365234 21.35180664 C204.66365234 22.01180664 204.33365234 22.67180664 203.99365234 23.35180664 C203.21363562 32.03428783 204.05235689 39.52283879 207.99365234 47.35180664 C208.69490234 48.17680664 209.39615234 49.00180664 210.11865234 49.85180664 C217.30404122 59.43232515 215.19462927 78.53318288 215.18115234 89.85180664 C215.1815451 90.55269409 215.18193787 91.25358154 215.18234253 91.97570801 C215.17396675 104.47664434 215.0411505 117.161814 211.99365234 129.35180664 C128.83365234 129.35180664 45.67365234 129.35180664 -40.00634766 129.35180664 C-42.36801967 106.91592255 -42.36801967 106.91592255 -42.31884766 96.85180664 C-42.3153833 95.62260498 -42.31191895 94.39340332 -42.30834961 93.12695312 C-42.10242793 74.49729855 -40.60555752 55.90587476 -39.00634766 37.35180664 C-38.89419922 36.03680176 -38.78205078 34.72179687 -38.66650391 33.36694336 C-36.55233946 10.0621955 -36.55233946 10.0621955 -28.29541016 1.59790039 C-20.26411316 -4.6204245 -9.16452463 -1.8773348 0 0 Z "
     fill="#F9F8FA"
     transform="translate(181.00634765625,382.648193359375)"
     id="path4" />
  <path
     d="M0 0 C6.91841565 1.40412134 13.88089054 2.41960078 20.86865234 3.41430664 C22.55099976 3.65745605 22.55099976 3.65745605 24.26733398 3.90551758 C27.84002326 4.4105239 31.41599612 4.88334287 34.99365234 5.35180664 C35.95872711 5.48841202 35.95872711 5.48841202 36.94329834 5.6277771 C49.93333196 7.45474039 62.80480709 7.62933266 75.90917969 7.55761719 C79.38402595 7.53922527 82.85860589 7.53710925 86.33349609 7.53735352 C88.58219628 7.53244081 90.83089469 7.52661357 93.07958984 7.51977539 C94.09862396 7.51866257 95.11765808 7.51754974 96.16757202 7.5164032 C105.93487451 7.45295184 115.45826057 6.74324713 125.05078125 4.88696289 C130.89434175 3.82432106 136.79271459 3.11779438 142.68115234 2.35180664 C144.02588435 2.17639261 145.37061087 2.00093655 146.71533203 1.82543945 C149.32604136 1.48489663 151.93690106 1.14558113 154.54785156 0.80688477 C157.32619142 0.4399565 160.09979453 0.05495635 162.87255859 -0.35131836 C169.79039267 -1.32861076 176.63818524 -1.8852172 183.61865234 -2.02319336 C184.73965332 -2.06234863 184.73965332 -2.06234863 185.88330078 -2.10229492 C191.91897815 -2.12149062 195.30596554 -0.19888642 199.60302734 3.87915039 C204.40628171 9.81742034 205.36019161 13.89884147 204.99365234 21.35180664 C204.66365234 22.01180664 204.33365234 22.67180664 203.99365234 23.35180664 C203.21363562 32.03428783 204.05235689 39.52283879 207.99365234 47.35180664 C208.69490234 48.17680664 209.39615234 49.00180664 210.11865234 49.85180664 C217.30404122 59.43232515 215.19462927 78.53318288 215.18115234 89.85180664 C215.1815451 90.55269409 215.18193787 91.25358154 215.18234253 91.97570801 C215.17396675 104.47664434 215.0411505 117.161814 211.99365234 129.35180664 C190.54365234 129.35180664 169.09365234 129.35180664 146.99365234 129.35180664 C148.64365234 127.70180664 150.29365234 126.05180664 151.99365234 124.35180664 C158.72971115 117.58264681 165.09020595 107.80677494 165.13891602 98.02319336 C165.14529587 97.15153534 165.15167572 96.27987732 165.1582489 95.38180542 C165.15936172 94.4412027 165.16047455 93.50059998 165.16162109 92.53149414 C165.16494949 91.55826202 165.16827789 90.58502991 165.17170715 89.58230591 C165.17677297 87.51947502 165.17911559 85.45663593 165.17895508 83.39379883 C165.1811294 80.25986914 165.19925512 77.12629847 165.21826172 73.99243164 C165.22119826 71.98462034 165.22318131 69.97680737 165.22412109 67.96899414 C165.23489937 66.57630814 165.23489937 66.57630814 165.24589539 65.15548706 C165.20954957 54.63471256 163.37028296 46.48014627 156.34521484 38.47290039 C146.82564711 29.17425089 134.74629397 27.60233098 121.99365234 27.64477539 C120.56423893 27.63144477 119.13484408 27.61597789 117.70547485 27.59854126 C113.91518389 27.55836471 110.12538727 27.54794176 106.33490753 27.54431534 C102.40381753 27.53590547 98.47295275 27.5012033 94.54199219 27.46972656 C87.52248277 27.41749475 80.50313537 27.38965983 73.48346138 27.37269497 C67.6462416 27.35727058 61.80948977 27.31518787 55.97247314 27.26329041 C51.80101754 27.22720907 47.62956143 27.20121807 43.45800781 27.17959595 C41.58299406 27.16949941 39.70799091 27.15715344 37.83300781 27.14242554 C35.27447483 27.12490333 32.71629955 27.12091789 30.15771484 27.12133789 C29.43693756 27.11421783 28.71616028 27.10709778 27.97354126 27.09976196 C17.86385363 27.14472465 10.40652276 30.386457 3.00927734 37.17211914 C-1.56562753 42.0011854 -3.9342732 47.07988234 -6.00634766 53.35180664 C-6.33634766 54.34180664 -6.66634766 55.33180664 -7.00634766 56.35180664 C-7.11654209 57.77069921 -7.17493386 59.19398546 -7.19921875 60.61694336 C-7.21528168 61.47569061 -7.2313446 62.33443787 -7.24789429 63.21920776 C-7.29276545 67.1761575 -7.33348195 71.13294201 -7.35644531 75.09008789 C-7.37290565 77.16344505 -7.40006212 79.23674784 -7.43847656 81.30981445 C-7.72041596 96.62280103 -7.18977568 109.17166382 3.07958984 121.47680664 C5.63257081 123.97768596 8.36253209 125.76781682 11.48974609 127.47680664 C12.23417969 127.90993164 12.23417969 127.90993164 12.99365234 128.35180664 C12.99365234 128.68180664 12.99365234 129.01180664 12.99365234 129.35180664 C-4.49634766 129.35180664 -21.98634766 129.35180664 -40.00634766 129.35180664 C-42.36801967 106.91592255 -42.36801967 106.91592255 -42.31884766 96.85180664 C-42.3153833 95.62260498 -42.31191895 94.39340332 -42.30834961 93.12695312 C-42.10242793 74.49729855 -40.60555752 55.90587476 -39.00634766 37.35180664 C-38.89419922 36.03680176 -38.78205078 34.72179687 -38.66650391 33.36694336 C-36.55233946 10.0621955 -36.55233946 10.0621955 -28.29541016 1.59790039 C-20.26411316 -4.6204245 -9.16452463 -1.8773348 0 0 Z "
     fill="#FAFBFB"
     transform="translate(181.00634765625,382.648193359375)"
     id="path5" />
  <path
     d="M0 0 C6.41596385 4.49647714 10.08879699 9.93569206 11.93359375 17.5703125 C12.41331079 22.80548537 10.16182143 26.33101204 7.19140625 30.36328125 C2.13427028 36.39380401 -3.26845385 39.67637496 -10.57421875 42.46875 C-11.76144531 42.99597656 -12.94867188 43.52320313 -14.171875 44.06640625 C-20.07363675 46.2772446 -26.22533718 45.80543767 -32.44140625 45.64453125 C-39.04072768 45.70851359 -42.28456552 47.04923528 -46.93017578 51.78076172 C-47.74397705 52.61631592 -47.74397705 52.61631592 -48.57421875 53.46875 C-53.67017513 56.79219981 -58.63715292 57.12848338 -64.57421875 57.46875 C-62.75146922 56.25358364 -60.90230065 55.07543208 -59.01171875 53.96875 C-55.45911134 50.3250501 -55.20399399 46.39415637 -54.57421875 41.46875 C-55.56421875 41.1903125 -55.56421875 41.1903125 -56.57421875 40.90625 C-63.57179606 37.55324421 -68.25076662 32.38153043 -71.57421875 25.46875 C-73.37526407 20.06561405 -73.40232124 14.62672309 -71.13671875 9.34375 C-65.80683741 -0.07737828 -55.08841247 -4.23596185 -45.26171875 -7.28125 C-30.07046437 -11.1477306 -13.3342669 -7.93176423 0 0 Z "
     fill="#F8394E"
     transform="translate(287.57421875,444.53125)"
     id="path6" />
  <path
     d="M0 0 C0.80038696 -0.00154587 1.60077393 -0.00309174 2.42541504 -0.00468445 C5.1274104 -0.00719103 7.82926792 -0.00078077 10.53125 0.0078125 C11.94422363 0.01163437 11.94422363 0.01163437 13.38574219 0.01553345 C18.74160159 0.03209876 24.09733991 0.0587797 29.453125 0.09130859 C34.90105788 0.12385332 40.34887199 0.142551 45.796875 0.15478516 C52.84951406 0.17145272 59.90176594 0.20985415 66.95418549 0.268116 C70.86837203 0.30003092 74.78220993 0.32395263 78.6965332 0.32781982 C82.4367375 0.33207356 86.17604746 0.36062687 89.91596985 0.40611839 C91.2983936 0.41896889 92.68092449 0.4236135 94.06340027 0.41900063 C106.31254404 0.38728667 117.43513521 2.65466699 126.453125 11.4453125 C137.14076811 22.87368335 136.29537833 35.51232881 136.38134766 50.20727539 C136.39787853 52.27379643 136.42513046 54.34026097 136.46337891 56.40649414 C136.86434632 78.23132468 136.86434632 78.23132468 131.03125 87.1328125 C130.5782251 87.91906006 130.1252002 88.70530762 129.65844727 89.51538086 C126.35880985 94.94128963 122.54395749 99.85448561 117.03125 103.1328125 C112.6729479 104.12969705 108.43734928 104.09082411 103.98095703 104.03857422 C102.68887329 104.05084045 101.39678955 104.06310669 100.06555176 104.07574463 C96.54019986 104.10750243 93.01629104 104.09534961 89.49091578 104.07309103 C85.78800426 104.05527983 82.08521045 104.07182965 78.3822937 104.08279419 C72.16332997 104.09550722 65.94494928 104.07880901 59.72607422 104.04541016 C52.55700013 104.00735046 45.38932083 104.01963405 38.22028077 104.05819499 C32.04579601 104.09006558 25.87172878 104.094392 19.69718826 104.07612431 C16.01798742 104.06526341 12.33943985 104.06360822 8.66028214 104.08687973 C4.55280661 104.11104805 0.44769468 104.07746147 -3.65966797 104.03857422 C-4.86414581 104.05274384 -6.06862366 104.06691345 -7.30960083 104.08151245 C-15.70836693 103.93476203 -20.70635712 101.72506853 -26.96875 96.1328125 C-29.3359375 93.6484375 -29.3359375 93.6484375 -30.84375 91.3828125 C-31.35679687 90.64546875 -31.86984375 89.908125 -32.3984375 89.1484375 C-32.91664063 88.15328125 -33.43484375 87.158125 -33.96875 86.1328125 C-34.3203418 85.47667969 -34.67193359 84.82054687 -35.03417969 84.14453125 C-39.1265579 75.07945881 -38.57199247 65.42451584 -38.49023438 55.68115234 C-38.46879705 52.63948833 -38.49010252 49.6001858 -38.515625 46.55859375 C-38.53574254 31.96656864 -37.10101949 20.67476492 -26.78125 9.5703125 C-18.81182248 1.85741161 -10.87567841 -0.02913824 0 0 Z M-22.4777832 18.08056641 C-29.28762996 27.4540021 -28.58736102 38.73582179 -28.49023438 49.78491211 C-28.46876899 52.6927404 -28.49012054 55.59810563 -28.515625 58.50585938 C-28.53335194 70.22789458 -28.1937926 80.4896719 -19.81640625 89.53125 C-13.15271403 95.30738913 -6.76704358 98.29881804 2.03125 98.1328125 C2.03125 98.7928125 2.03125 99.4528125 2.03125 100.1328125 C14.50570792 100.22568936 26.98008292 100.29666734 39.45481682 100.34006119 C45.24799734 100.36089313 51.04094046 100.38913066 56.83398438 100.43457031 C62.4296208 100.47818447 68.02502955 100.50198262 73.62082291 100.51232147 C75.75056667 100.51968491 77.88029866 100.53406378 80.00994492 100.55573273 C83.00413221 100.58497343 85.99739103 100.58875986 88.99169922 100.58691406 C89.8627681 100.60129517 90.73383698 100.61567627 91.63130188 100.63049316 C101.38921094 100.56584184 109.9169955 96.77475135 117.03125 90.1328125 C124.67622091 81.99659848 127.52199231 73.89583495 127.39453125 62.8203125 C127.39502975 61.96655029 127.39552826 61.11278809 127.39604187 60.2331543 C127.39371822 58.44154514 127.3840918 56.64993164 127.36743164 54.85839844 C127.3438096 52.13967219 127.34688799 49.4219282 127.35351562 46.703125 C127.34793808 44.95051508 127.34082772 43.19790922 127.33203125 41.4453125 C127.33339836 40.24491333 127.33339836 40.24491333 127.33479309 39.02026367 C127.24991081 32.15363235 126.90814972 24.30006517 122.15625 18.9453125 C109.88357666 7.02038043 96.37638206 8.27459246 80.23828125 8.40625 C77.72108461 8.40728875 75.20388633 8.40624736 72.68669128 8.40322876 C67.42902456 8.40340754 62.17182542 8.42344411 56.91430664 8.46044922 C50.85760889 8.50283836 44.80166994 8.50978536 38.74485379 8.4973253 C32.88534437 8.48589396 27.02610353 8.49749102 21.1666317 8.51967239 C18.68722282 8.52734595 16.20779128 8.5296855 13.72837257 8.5265007 C10.26094343 8.52575569 6.79465031 8.55109793 3.32739258 8.58349609 C2.31261841 8.57854126 1.29784424 8.57358643 0.25231934 8.56848145 C-8.79781389 8.70286738 -16.30417191 11.2202086 -22.4777832 18.08056641 Z "
     fill="#0D1B23"
     transform="translate(210.96875,408.8671875)"
     id="path7" />
  <path
     d="M0 0 C2.87602455 -0.10852923 5.74790832 -0.1875515 8.625 -0.25 C9.43324219 -0.28351563 10.24148438 -0.31703125 11.07421875 -0.3515625 C17.43378522 -0.45497008 20.91072146 1.06818468 25.609375 5.52734375 C30.41262936 11.4656137 31.36653927 15.54703483 31 23 C30.67 23.66 30.34 24.32 30 25 C29.21998328 33.68248119 30.05870454 41.17103215 34 49 C34.70125 49.825 35.4025 50.65 36.125 51.5 C43.31038888 61.08051851 41.20097693 80.18137624 41.1875 91.5 C41.18789276 92.20088745 41.18828552 92.9017749 41.18869019 93.62390137 C41.18031441 106.1248377 41.04749816 118.81000736 38 131 C23.48 131 8.96 131 -6 131 C-4.02 126.05 -2.04 121.1 0 116 C1.07740724 112.54456544 2.08956321 109.14953389 3 105.65625 C3.24363281 104.75861938 3.48726563 103.86098877 3.73828125 102.93615723 C4.50070368 100.12631291 5.25189158 97.31368643 6 94.5 C9.02542138 83.12118533 12.05524323 72.01499681 16.76416016 61.20288086 C22.2437261 47.00169049 21.82743605 28.93594798 16 15 C12.68141693 7.53985382 12.68141693 7.53985382 7 2 C4.67612053 1.60612212 2.34206251 1.26513915 0 1 C0 0.67 0 0.34 0 0 Z "
     fill="#D8D7DB"
     transform="translate(355,381)"
     id="path8" />
  <path
     d="M0 0 C10.98100233 5.7528791 19.48238166 14.67505886 28.05664062 23.42871094 C28.76626953 24.15219727 29.47589844 24.87568359 30.20703125 25.62109375 C30.84511719 26.277146 31.48320312 26.93319824 32.140625 27.60913086 C35.08729769 30.40785161 37.67719534 30.50851265 41.69140625 30.421875 C48.1093911 29.60153107 52.03533534 23.81302699 55.9375 19.1796875 C57.76953125 17.15625 57.76953125 17.15625 60.76953125 15.15625 C66.21397569 15.60069444 66.21397569 15.60069444 68.76953125 18.15625 C69.67423456 27.38422376 64.74626651 34.7478441 59.76953125 42.15625 C57.20703125 45.03125 57.20703125 45.03125 54.76953125 47.15625 C53.71765625 48.1771875 53.71765625 48.1771875 52.64453125 49.21875 C45.12780989 54.28436657 36.76213474 56.43151687 27.76953125 55.15625 C24.23286558 54.19222339 21.05786811 52.76493278 17.76953125 51.15625 C16.69832031 50.63546875 15.62710938 50.1146875 14.5234375 49.578125 C12.15178173 48.40419505 9.78942046 47.22017499 7.43359375 46.015625 C4.98468797 44.76428268 2.52291879 43.54798241 0.04296875 42.359375 C-19.11748348 33.12879217 -19.11748348 33.12879217 -21.90625 25.24609375 C-22.29883749 22.71555993 -22.40020704 20.2799881 -22.41796875 17.71875 C-22.43214844 16.79191406 -22.44632812 15.86507813 -22.4609375 14.91015625 C-22.01743018 9.61061961 -19.78969652 6.02055443 -16.23046875 2.15625 C-11.42265832 -1.82736436 -5.75147461 -2.17568917 0 0 Z "
     fill="#040404"
     transform="translate(282.23046875,247.84375)"
     id="path9" />
  <path
     d="M0 0 C4.85629051 2.14900415 8.17488766 4.72482638 11.0625 9.1875 C12.74165565 16.01606632 13.05965534 22.55752923 10 29 C4.31893799 35.52465907 -2.91180324 39.46718329 -10.5625 43.25 C-11.55185547 43.75273437 -12.54121094 44.25546875 -13.56054688 44.7734375 C-16.36696511 46.1962003 -19.18288629 47.59857475 -22 49 C-22.76626709 49.39155273 -23.53253418 49.78310547 -24.32202148 50.18652344 C-32.00120466 54.10482283 -40.24056621 57.52337979 -49 56 C-60.67483552 52.19397341 -67.44517753 47.30043531 -74 37 C-74.43957031 36.31808594 -74.87914062 35.63617188 -75.33203125 34.93359375 C-77.36983196 31.59966538 -78 30.01340581 -78 26 C-78.66 26 -79.32 26 -80 26 C-80.32357362 22.44069018 -80.3880551 20.58208265 -78.375 17.5625 C-76 16 -76 16 -73.0625 15.9375 C-68.36431531 17.56748244 -66.00678719 20.62405751 -63.125 24.5625 C-59.22158966 29.03994127 -55.91191045 30.79935551 -50.12890625 31.40625 C-45.51355995 31.29397907 -43.45111234 29.45111234 -40.1875 26.1875 C-39.42783936 25.44741699 -39.42783936 25.44741699 -38.65283203 24.69238281 C-37.07894893 23.1493218 -35.53623783 21.58048148 -34 20 C-12.31940182 -2.22024307 -12.31940182 -2.22024307 0 0 Z "
     fill="#030303"
     transform="translate(240,247)"
     id="path10" />
  <path
     d="M0 0 C3.92920699 1.82634171 6.64740602 3.9479749 9.4375 7.3125 C10.13875 8.116875 10.84 8.92125 11.5625 9.75 C16.9289946 17.08420928 17.32589698 23.43829284 16.4375 32.3125 C14.32546582 40.511525 10.76142664 46.00605927 3.5625 50.5 C-4.26013953 54.93586994 -11.26862223 56.87893456 -20.18359375 54.66015625 C-26.3423811 52.47598966 -30.52608848 49.42460495 -34.5625 44.3125 C-35.07039062 43.70019531 -35.57828125 43.08789062 -36.1015625 42.45703125 C-40.9638678 35.43521047 -40.93551825 26.50382516 -39.5625 18.3125 C-36.66157218 10.01057202 -30.17935472 4.02904711 -22.734375 -0.3515625 C-15.64184932 -3.33880854 -7.14022908 -2.63342782 0 0 Z "
     fill="#0C1C23"
     transform="translate(204.5625,193.6875)"
     id="path11" />
  <path
     d="M0 0 C0.69738281 0.44214844 1.39476562 0.88429687 2.11328125 1.33984375 C3.47453125 2.17515625 3.47453125 2.17515625 4.86328125 3.02734375 C10.09954826 8.40906262 14.21680662 15.2978691 14.36328125 22.90234375 C14.2071244 32.66924519 11.15532767 40.46061921 4.11328125 47.33984375 C-0.5173383 50.71415609 -5.10862812 52.9860831 -10.88671875 53.33984375 C-11.60214844 53.42492187 -12.31757813 53.51 -13.0546875 53.59765625 C-20.70491012 54.15713199 -26.60722894 51.6077221 -32.88671875 47.33984375 C-38.59673131 41.78688458 -42.20122909 34.5178079 -42.40600586 26.49194336 C-42.39964111 25.82300049 -42.39327637 25.15405762 -42.38671875 24.46484375 C-42.38099854 23.76302979 -42.37527832 23.06121582 -42.36938477 22.33813477 C-42.15791044 16.17974593 -40.74313616 12.07716869 -36.88671875 7.33984375 C-36.37882812 6.6953125 -35.8709375 6.05078125 -35.34765625 5.38671875 C-26.12419244 -5.01699872 -11.88777936 -6.84447903 0 0 Z "
     fill="#0C1B23"
     transform="translate(332.88671875,195.66015625)"
     id="path12" />
  <path
     d="M0 0 C1.64026154 -0.01489471 1.64026154 -0.01489471 3.31365967 -0.03009033 C6.92446431 -0.05925283 10.53509312 -0.07292519 14.14599609 -0.08398438 C16.66458132 -0.09549554 19.18316652 -0.1070109 21.70175171 -0.11853027 C26.3083373 -0.13684772 30.91487284 -0.14945647 35.52149069 -0.15552378 C42.27274445 -0.16446784 49.02318484 -0.19949408 55.7741915 -0.25752497 C61.64641857 -0.30622513 67.51837786 -0.32142484 73.39078903 -0.32487488 C75.87614743 -0.33090394 78.36150341 -0.34687962 80.84672928 -0.37324524 C107.62498913 -0.63701444 107.62498913 -0.63701444 117.32803345 8.4642334 C120.31192335 11.57214316 122.25294479 14.03106124 123.04443359 18.32226562 C120.69195584 20.58064427 119.24164508 21.29409255 115.98193359 21.75976562 C111.48382015 21.25997524 107.78658531 19.94894219 103.59521484 18.29492188 C99.90588511 16.88811774 96.71555106 16.19782898 92.76512146 16.18182373 C91.91727585 16.17611359 91.06943024 16.17040344 90.19589233 16.16452026 C89.2737796 16.1634024 88.35166687 16.16228455 87.40161133 16.16113281 C85.9349427 16.15368546 85.9349427 16.15368546 84.43864441 16.14608765 C81.20176489 16.13147684 77.96493444 16.12466434 74.72802734 16.11914062 C72.47323099 16.11338647 70.21843464 16.10762877 67.96363831 16.10186768 C63.23169731 16.09135951 58.49977329 16.08551623 53.76782227 16.08203125 C47.72447423 16.0765595 41.68135296 16.05255878 35.63807583 16.0240593 C30.97700868 16.00536757 26.31599532 16.00022375 21.65489388 15.99869537 C19.42831246 15.99568098 17.20173172 15.98769377 14.9751873 15.97451019 C11.84762609 15.95731978 8.72060778 15.95936206 5.59301758 15.96582031 C4.68507446 15.95660553 3.77713135 15.94739075 2.8416748 15.93789673 C-2.97330972 15.97522398 -8.0120498 16.94055325 -13.57226467 18.64802933 C-16.46862684 19.46741047 -18.9668901 19.70542925 -21.95556641 19.32226562 C-23.95556641 17.32226562 -23.95556641 17.32226562 -24.08056641 14.19726562 C-24.03931641 13.24851562 -23.99806641 12.29976563 -23.95556641 11.32226562 C-24.61556641 10.99226563 -25.27556641 10.66226562 -25.95556641 10.32226562 C-24.59161658 9.01893579 -23.2138223 7.73008709 -21.83056641 6.44726562 C-21.06486328 5.72796875 -20.29916016 5.00867188 -19.51025391 4.26757812 C-13.54046917 -0.27822126 -7.18370634 0.01566046 0 0 Z "
     fill="#24C2DA"
     transform="translate(213.95556640625,417.677734375)"
     id="path13" />
  <path
     d="M0 0 C3.3722605 1.41796574 5.07673159 3.07208798 7.3125 5.9375 C11.42144851 10.7927319 15.0124551 12.43631228 21.3125 13.625 C24 15 24 15 24.78125 16.94921875 C25.3084867 19.29464673 25.67993734 21.61823503 26 24 C26.20625 24.86625 26.4125 25.7325 26.625 26.625 C27 29 27 29 26.9375 32.6875 C26.61844149 36.08086928 26.61844149 36.08086928 29 38 C29.103125 39.27875 29.20625 40.5575 29.3125 41.875 C29.45803393 44.03601426 29.45803393 44.03601426 30 46 C30.845625 46.639375 31.69125 47.27875 32.5625 47.9375 C35 50 35 50 35.50390625 52.0625 C35.71875756 56.27635801 35.63988518 58.28901647 32.75 61.5 C31.8425 62.325 30.935 63.15 30 64 C26.81681856 69.65404256 25.04512818 75.86461545 23 82 C16.07 82 9.14 82 2 82 C2.01047363 80.23068115 2.02094727 78.4613623 2.03173828 76.63842773 C2.06425126 70.73128698 2.08708744 64.82414927 2.10362434 58.91694546 C2.11397295 55.34244637 2.12796449 51.76804588 2.15087891 48.19360352 C2.17293142 44.73114647 2.18463528 41.26878303 2.18975449 37.80626106 C2.19513953 35.87076347 2.21069755 33.93530248 2.22659302 31.99986267 C2.22754745 24.29089256 1.60592528 16.94663609 0.43063354 9.34657288 C0.02388929 6.18565029 -0.07657353 3.18223017 0 0 Z "
     fill="#C1E7F8"
     transform="translate(398,430)"
     id="path14" />
  <path
     d="M0 0 C7.66080956 3.0772353 13.40697541 8.09756289 17.25 15.36328125 C20.48116804 22.93633135 21.04088499 30.8792216 20 39 C17.23914778 44.8075915 12.88154812 47.65527754 7.1875 50.3125 C1.61654358 51.51407884 -3.63766654 51.70870004 -9.125 50.0625 C-15.95662996 45.16154807 -22.03697977 38.33056709 -24 30 C-25.02975756 20.05640355 -24.62198878 12.77748597 -18.375 4.96875 C-12.97992506 -0.69607869 -7.55509265 -1.53827917 0 0 Z "
     fill="#28B9D3"
     transform="translate(427,386)"
     id="path15" />
  <path
     d="M0 0 C4.19375303 1.80582741 7.78779594 4.00342861 10.1953125 7.96875 C14.51288155 18.867468 14.64094495 31.95992627 10.13671875 42.72265625 C7.66716008 47.67026004 4.9405538 50.55694378 0 53 C-3.55859375 53.43359375 -3.55859375 53.43359375 -7.4375 53.4375 C-8.71496094 53.45683594 -9.99242188 53.47617187 -11.30859375 53.49609375 C-16.44304283 52.80606726 -20.81699635 50.13790474 -24 46 C-27.53268839 37.32528739 -27.34952794 25.9142312 -24.5 17 C-20.17549398 6.90435606 -11.67398297 -2.28568275 0 0 Z "
     fill="#28B7D1"
     transform="translate(110,390)"
     id="path16" />
  <path
     d="M0 0 C-0.00333092 1.0466407 -0.00333092 1.0466407 -0.00672913 2.11442566 C-0.02691397 8.74735358 -0.04206576 15.3802727 -0.05181217 22.0132246 C-0.0569916 25.42183448 -0.06399741 28.83041861 -0.07543945 32.23901367 C-0.08856204 36.17366204 -0.09326897 40.10830062 -0.09765625 44.04296875 C-0.10281754 45.24455124 -0.10797882 46.44613373 -0.11329651 47.68412781 C-0.11380589 55.50869377 0.31586356 63.20463216 1 71 C-6.59 71 -14.18 71 -22 71 C-22.53625 69.14375 -23.0725 67.2875 -23.625 65.375 C-24.96114968 61.26525441 -26.02985818 58.47148661 -29.3125 55.625 C-30.199375 54.75875 -31.08625 53.8925 -32 53 C-31.875 49.625 -31.875 49.625 -31 47 C-28.525 46.505 -28.525 46.505 -26 46 C-25.87882812 44.86820312 -25.75765625 43.73640625 -25.6328125 42.5703125 C-25.46399724 41.08848969 -25.29470145 39.60672158 -25.125 38.125 C-25.00705078 37.00544922 -25.00705078 37.00544922 -24.88671875 35.86328125 C-24.2265625 30.2265625 -24.2265625 30.2265625 -22 28 C-21.72345612 26.06318864 -21.72345612 26.06318864 -21.8046875 23.8671875 C-21.81113281 23.06152344 -21.81757812 22.25585938 -21.82421875 21.42578125 C-21.84097656 20.58402344 -21.85773438 19.74226563 -21.875 18.875 C-21.88853516 17.60076172 -21.88853516 17.60076172 -21.90234375 16.30078125 C-21.92594353 14.20040116 -21.96181517 12.10016556 -22 10 C-21.43152344 9.69707031 -20.86304687 9.39414062 -20.27734375 9.08203125 C-16.41451778 6.98617409 -12.77412189 4.90401942 -9.3125 2.1875 C-5.65253058 -0.22946094 -4.23664633 -0.20738828 0 0 Z "
     fill="#BFE5F7"
     transform="translate(132,441)"
     id="path17" />
  <path
     d="M0 0 C6.13064338 2.88432174 10.51527682 7.23623512 13.61328125 13.27734375 C15.81539851 20.79865974 15.05749221 27.08358749 11.3125 33.97265625 C7.86704812 38.64579788 3.05999983 41.46177089 -2.38671875 43.27734375 C-9.44349281 44.05435317 -15.39074446 43.209694 -21.38671875 39.27734375 C-25.8527058 35.15562979 -29.12575923 30.96583372 -29.72265625 24.81640625 C-29.73554688 23.52476563 -29.7484375 22.233125 -29.76171875 20.90234375 C-29.79007813 19.61585937 -29.8184375 18.329375 -29.84765625 17.00390625 C-29.14104381 11.2911243 -26.24461302 7.63251082 -21.88671875 4.02734375 C-21.31953125 3.5478125 -20.75234375 3.06828125 -20.16796875 2.57421875 C-14.21289941 -1.76148963 -7.0240754 -2.12676588 0 0 Z "
     fill="#0D1B23"
     transform="translate(269.38671875,33.72265625)"
     id="path18" />
  <path
     d="M0 0 C0.75539063 -0.01933594 1.51078125 -0.03867188 2.2890625 -0.05859375 C4.375 0.4375 4.375 0.4375 5.93261719 1.89404297 C8.07408145 5.67024044 8.20218166 9.34837358 8.5390625 13.62890625 C8.61822906 14.54966446 8.69739563 15.47042267 8.77896118 16.41908264 C9.58648566 26.66947519 9.7472001 36.92175083 9.74560547 47.19995117 C9.75006896 50.4248201 9.78682744 53.64841019 9.82421875 56.87304688 C9.83007336 58.94530791 9.8340518 61.0175753 9.8359375 63.08984375 C9.85030853 64.0429393 9.86467957 64.99603485 9.87948608 65.97801208 C9.83618494 72.26046916 8.92200974 75.89049026 4.375 80.4375 C2.39880553 80.56264928 0.41761827 80.6132276 -1.5625 80.625 C-2.64402344 80.63917969 -3.72554688 80.65335937 -4.83984375 80.66796875 C-7.625 80.4375 -7.625 80.4375 -9.625 78.4375 C-9.89915466 75.36988831 -9.89915466 75.36988831 -9.93139648 71.37329102 C-9.93972 70.64630005 -9.94804352 69.91930908 -9.95661926 69.17028809 C-9.98076828 66.76060678 -9.98949679 64.35119582 -9.99609375 61.94140625 C-10.00505573 60.26993221 -10.01417749 58.59845902 -10.02345276 56.92698669 C-10.03995818 53.42062426 -10.04764579 49.9143575 -10.05053711 46.40795898 C-10.0559254 41.91046507 -10.09361624 37.41386746 -10.13928127 32.91662693 C-10.16899308 29.46368611 -10.17625936 26.01096276 -10.17726326 22.5579052 C-10.18147662 20.89964628 -10.19395554 19.24138736 -10.21478081 17.58325386 C-10.24157835 15.26519578 -10.23690702 12.94923632 -10.22436523 10.63110352 C-10.22943588 9.31143082 -10.23450653 7.99175812 -10.23973083 6.63209534 C-9.625 3.4375 -9.625 3.4375 -7.23451233 1.51499939 C-4.62761114 0.43857817 -2.80530935 0.00482012 0 0 Z "
     fill="#07495A"
     transform="translate(117.625,189.5625)"
     id="path19" />
  <path
     d="M0 0 C1.02525787 0.00142502 2.05051575 0.00285004 3.10684204 0.00431824 C4.2692038 0.00124161 5.43156555 -0.00183502 6.62915039 -0.00500488 C7.89360992 0.00218063 9.15806946 0.00936615 10.46084595 0.01676941 C12.41155502 0.01745674 12.41155502 0.01745674 14.40167236 0.01815796 C17.16412658 0.01972488 19.92645162 0.02802031 22.68887329 0.04142761 C26.19640855 0.05825105 29.70379961 0.06224665 33.21137047 0.06148243 C36.5862142 0.06182362 39.96101272 0.07069502 43.33584595 0.07926941 C44.58006317 0.08038223 45.8242804 0.08149506 47.10620117 0.0826416 C54.63842187 0.12289215 62.06718013 0.49644508 69.56240845 1.24723816 C69.56240845 2.56723816 69.56240845 3.88723816 69.56240845 5.24723816 C67.40615845 6.68864441 67.40615845 6.68864441 64.56240845 8.24723816 C62.69504196 9.85435386 60.86292956 11.50307167 59.06240845 13.18473816 C57.23885123 14.88279776 55.40578703 16.57071712 53.56240845 18.24723816 C52.88033325 18.94220398 52.19825806 19.6371698 51.49551392 20.35319519 C47.34298131 23.03467913 43.76970514 22.94918775 38.91397095 23.02458191 C37.98321747 23.04501053 37.05246399 23.06543915 36.09350586 23.08648682 C34.12854409 23.1198148 32.16336181 23.14181837 30.19815063 23.15324402 C27.20109495 23.18459499 24.21357644 23.29580665 21.21865845 23.40934753 C7.23573895 23.68139505 7.23573895 23.68139505 2.79190063 19.87272644 C1.03567951 17.05855771 -0.15598878 14.29663391 -1.43759155 11.24723816 C-2.7604814 9.90354251 -4.09192197 8.56812003 -5.43759155 7.24723816 C-5.24417737 3.1855403 -4.41818337 0.4481241 0 0 Z "
     fill="#D3A904"
     transform="translate(228.43759155273438,112.75276184082031)"
     id="path20" />
  <path
     d="M0 0 C0.86625 -0.00515625 1.7325 -0.0103125 2.625 -0.015625 C5 0.25 5 0.25 8 2.25 C8.2487793 4.69482422 8.2487793 4.69482422 8.07421875 7.8046875 C8.01927246 8.96307129 7.96432617 10.12145508 7.90771484 11.31494141 C7.7987085 13.20092041 7.7987085 13.20092041 7.6875 15.125 C7.56509764 17.77595132 7.44604 20.42682267 7.33203125 23.078125 C7.28647095 24.09581467 7.28647095 24.09581467 7.23999023 25.13406372 C6.94083876 32.04722884 6.87165427 38.95555725 6.875 45.875 C6.87363037 47.02911377 6.87226074 48.18322754 6.87084961 49.37231445 C6.88930725 54.63801531 6.99892518 59.86751736 7.3671875 65.12109375 C7.42922363 66.00651855 7.49125977 66.89194336 7.55517578 67.80419922 C7.68094852 69.42348386 7.8263686 71.04141776 7.99560547 72.65673828 C8.171875 74.78515625 8.171875 74.78515625 8 78.25 C5.94796627 80.6720726 4.62715683 81.14002463 1.52734375 81.68359375 C0.24537109 81.68552734 0.24537109 81.68552734 -1.0625 81.6875 C-1.91972656 81.70683594 -2.77695312 81.72617187 -3.66015625 81.74609375 C-6 81.25 -6 81.25 -7.60400391 79.51660156 C-12.88936445 70.93505429 -10.18604558 54.41076721 -10.18530273 44.66088867 C-10.18748778 41.45543095 -10.20569196 38.25031895 -10.22460938 35.04492188 C-10.29501214 10.57628855 -10.29501214 10.57628855 -8 2.25 C-4.76085771 0.09057181 -3.75140267 -0.02232978 0 0 Z "
     fill="#054E5E"
     transform="translate(396,192.75)"
     id="path21" />
  <path
     d="M0 0 C0.33 0 0.66 0 1 0 C1.02578125 0.73863281 1.0515625 1.47726562 1.078125 2.23828125 C1.54006374 10.50068549 2.59464838 18.99370398 8.125 25.5 C15.31038888 35.08051851 13.20097693 54.18137624 13.1875 65.5 C13.18808914 66.55133118 13.18808914 66.55133118 13.18869019 67.62390137 C13.18031441 80.1248377 13.04749816 92.81000736 10 105 C5.05 105 0.1 105 -5 105 C-4.86722656 103.45828125 -4.73445313 101.9165625 -4.59765625 100.328125 C-3.00255333 79.88029529 -2.64039805 59.43861103 -2.46414185 38.93640137 C-2.44153084 36.33401838 -2.41554406 33.73166229 -2.38600159 31.12934875 C-2.35884171 28.73358115 -2.33890073 26.33771493 -2.32798767 23.94181824 C-2.22861427 15.83070048 -1.31361983 8.00163154 0 0 Z "
     fill="#878789"
     transform="translate(383,407)"
     id="path22" />
  <path
     d="M0 0 C1 1 1 1 1.09765625 3.28515625 C1.08605469 4.20167969 1.07445312 5.11820312 1.0625 6.0625 C1.05347656 6.98160156 1.04445313 7.90070313 1.03515625 8.84765625 C1.02355469 9.55792969 1.01195312 10.26820313 1 11 C-1.22907395 11.47959778 -3.45826297 11.9586608 -5.6875 12.4375 C-7.54955078 12.83775391 -7.54955078 12.83775391 -9.44921875 13.24609375 C-10.62097656 13.49488281 -11.79273438 13.74367188 -13 14 C-13.80081497 14.17755325 -14.60162994 14.35510651 -15.42671204 14.53804016 C-17.91820363 14.98531582 -20.19557428 15.13312344 -22.72338867 15.14526367 C-23.63170944 15.15164352 -24.54003021 15.15802338 -25.47587585 15.16459656 C-26.44676651 15.16570938 -27.41765717 15.1668222 -28.41796875 15.16796875 C-29.43039139 15.17129715 -30.44281403 15.17462555 -31.48591614 15.17805481 C-33.62675524 15.18311088 -35.7676022 15.18546354 -37.90844727 15.18530273 C-41.15850081 15.18748057 -44.40820997 15.20562663 -47.65820312 15.22460938 C-49.74479052 15.22754542 -51.83137951 15.2295288 -53.91796875 15.23046875 C-54.87873825 15.23765427 -55.83950775 15.24483978 -56.82939148 15.25224304 C-72.80093248 15.19906752 -72.80093248 15.19906752 -76 12 C-76.07205511 10.31391034 -76.08386068 8.62499341 -76.0625 6.9375 C-76.05347656 6.01839844 -76.04445312 5.09929687 -76.03515625 4.15234375 C-76.02355469 3.44207031 -76.01195312 2.73179687 -76 2 C-72.62598651 0.73474494 -69.84691522 1.28313208 -66.35070801 1.75088501 C-62.02931403 2.20884236 -57.70103512 2.16287831 -53.359375 2.16796875 C-51.85422333 2.17296135 -51.85422333 2.17296135 -50.31866455 2.17805481 C-48.20414688 2.18309544 -46.08962133 2.18546403 -43.97509766 2.18530273 C-40.77362668 2.1874839 -37.57250369 2.20565593 -34.37109375 2.22460938 C-20.73890137 2.32212668 -20.73890137 2.32212668 -7.27832031 0.4309082 C-4.79049215 -0.03962509 -2.52625596 -0.13886223 0 0 Z "
     fill="#024758"
     transform="translate(300,368)"
     id="path23" />
  <path
     d="M0 0 C4.68193401 3.63253501 7.74479825 8.32511674 10 13.78125 C10 14.77125 10 15.76125 10 16.78125 C-6.5 16.78125 -23 16.78125 -40 16.78125 C-36.96629213 3.12956461 -36.96629213 3.12956461 -31 -1.59375 C-21.78021354 -6.587801 -8.85322462 -5.39493375 0 0 Z "
     fill="#29B8D0"
     transform="translate(469,495.21875)"
     id="path24" />
  <path
     d="M0 0 C28.05 0 56.1 0 85 0 C84 4 84 4 82.06640625 5.1953125 C67.96881656 10.42967497 53.9851578 11.17554689 39.04760742 11.13037109 C36.9372645 11.1249994 34.82713348 11.13035568 32.71679688 11.13671875 C12.89476401 11.1493725 12.89476401 11.1493725 5.4375 8.3125 C4.61121094 8.01988281 3.78492188 7.72726562 2.93359375 7.42578125 C1 6 1 6 0 0 Z "
     fill="#034858"
     transform="translate(221,356)"
     id="path25" />
  <path
     d="M0 0 C2.31 0 4.62 0 7 0 C7.32613281 0.74765625 7.65226563 1.4953125 7.98828125 2.265625 C8.64376953 3.74289062 8.64376953 3.74289062 9.3125 5.25 C9.74175781 6.22453125 10.17101562 7.1990625 10.61328125 8.203125 C11.87163816 10.74110683 13.30366657 12.75148765 15 15 C15 15.66 15 16.32 15 17 C15.5775 17.28875 16.155 17.5775 16.75 17.875 C18.11521932 18.55760966 19.46533007 19.27348346 20.78125 20.046875 C25.81828843 22.2106732 32.23541989 21.82491503 37.421875 20.27734375 C43.97638081 17.23418034 47.0827661 12.49747551 50 6 C50.69971973 4.01132287 51.37664397 2.01391949 52 0 C53.99954746 -0.04254356 56.00041636 -0.04080783 58 0 C59 1 59 1 59.3125 4 C59.15729521 11.58951406 54.94340788 17.85756303 49.9375 23.2734375 C43.05250717 29.4088545 35.43648678 30.29749318 26.51953125 30.21484375 C19.4718305 29.78462894 13.84016288 27.27302297 9 22 C3.78313726 15.44384487 0 8.50527975 0 0 Z "
     fill="#131F27"
     transform="translate(227,297)"
     id="path26" />
  <path
     d="M0 0 C1.30066406 0.01289063 2.60132813 0.02578125 3.94140625 0.0390625 C8.9947777 0.52463786 8.9947777 0.52463786 11.4375 2.375 C11.581875 3.468125 11.72625 4.56125 11.875 5.6875 C12.56675567 10.22234272 13.88958677 11.56967326 17.4375 14.375 C19.61096568 15.23619134 19.61096568 15.23619134 21.4375 15.375 C21.4375 14.055 21.4375 12.735 21.4375 11.375 C23.9125 12.365 23.9125 12.365 26.4375 13.375 C26.4375 14.365 26.4375 15.355 26.4375 16.375 C27.0975 16.375 27.7575 16.375 28.4375 16.375 C28.4375 17.365 28.4375 18.355 28.4375 19.375 C12.5975 19.375 -3.2425 19.375 -19.5625 19.375 C-18.42742622 12.56455732 -18.42742622 12.56455732 -15.8125 8.75 C-15.32265625 8.01523437 -14.8328125 7.28046875 -14.328125 6.5234375 C-9.93668535 1.17987155 -6.95872582 -0.15202777 0 0 Z "
     fill="#28B9D2"
     transform="translate(73.5625,492.625)"
     id="path27" />
  <path
     d="M0 0 C3.78580423 2.03850997 7.05061257 4.10122513 9 8 C9.60440055 12.09649262 9.94035801 14.49887804 7.72265625 18.0390625 C4.42186153 21.96127823 2.51479043 23.76893027 -2.6875 24.5625 C-6.57514971 24.50564223 -8.30851971 23.32524148 -11 20.5625 C-13.94894961 16.756533 -14.8963584 13.8362057 -14.5 9.046875 C-12.7009535 1.6820284 -6.94988433 -0.7067679 0 0 Z "
     fill="#F2F2F7"
     transform="translate(264,43)"
     id="path28" />
  <path
     d="M0 0 C1.32 0 2.64 0 4 0 C4.06668641 11.6988337 3.87746125 23.37006788 3.5 35.0625 C3.45158347 36.62303946 3.40340553 38.18358635 3.35546875 39.74414062 C3.23971066 43.49618275 3.12079017 47.24811608 3 51 C2.01 51 1.02 51 0 51 C-5.05944754 42.56758743 -6.34253721 36.00966871 -6.3125 26.1875 C-6.33666992 24.62418945 -6.33666992 24.62418945 -6.36132812 23.02929688 C-6.36642484 14.91023773 -5.27349164 6.53912963 0 0 Z "
     fill="#E9ECEF"
     transform="translate(96,205)"
     id="path29" />
  <path
     d="M0 0 C2.99115131 2.01444884 4.62538088 3.34431729 5.4375 6.93359375 C5.66648484 10.71899938 5.24223342 12.61576768 3.1875 15.875 C0.08131473 18.89243712 -2.01282554 20.3112574 -6.3125 20.4375 C-9.82659505 20.3744412 -11.77477223 19.8619303 -14.5 17.625 C-17.35830966 14.62377486 -17.87635801 13.80367297 -18.5 9.75 C-17.87126789 5.0345092 -16.35879526 3.95923751 -12.7265625 1.1640625 C-8.4860009 -1.69495867 -4.85939566 -1.19809238 0 0 Z "
     fill="#20BCD7"
     transform="translate(200,214)"
     id="path30" />
  <path
     d="M0 0 C3.02508145 1.73602105 5.41790069 3.83580137 7 7 C7.41465022 10.731852 7.297997 12.51437526 5.3125 15.75 C1.83010697 19.1382743 -0.70541408 19.86129437 -5.5 20.375 C-9.64624123 19.93075987 -11.12207451 18.96015193 -14 16 C-16.27739318 12.74658117 -16.63793108 9.9073279 -16 6 C-11.58709961 0.93734741 -6.64844822 -1.13480007 0 0 Z "
     fill="#1ABBD5"
     transform="translate(325,214)"
     id="path31" />
  <path
     d="M0 0 C1.32 0 2.64 0 4 0 C4 17.16 4 34.32 4 52 C3.01 51.67 2.02 51.34 1 51 C-5.53671673 35.7868499 -5.72232486 16.56165085 -1 1 C-0.67 0.67 -0.34 0.34 0 0 Z "
     fill="#E8EDF2"
     transform="translate(413,208)"
     id="path32" />
  <path
     d="M0 0 C0.33 0 0.66 0 1 0 C0.95617187 1.16273438 0.91234375 2.32546875 0.8671875 3.5234375 C0.74428084 17.09461949 4.65449064 25.80197011 12 37 C12.74239851 38.17661385 13.48221081 39.35486573 14.21875 40.53515625 C15.40040153 42.41175448 16.59799812 44.27853633 17.8203125 46.12890625 C19 48 19 48 19 49 C13.39 49 7.78 49 2 49 C-0.15005046 32.60586526 -0.21350993 16.49774833 0 0 Z "
     fill="#CCCED3"
     transform="translate(139,463)"
     id="path33" />
  <path
     d="M0 0 C1.29349365 0.00523682 2.5869873 0.01047363 3.91967773 0.01586914 C4.9496714 0.01799156 4.9496714 0.01799156 6.00047302 0.02015686 C8.20144949 0.0257706 10.40232557 0.03832532 12.60327148 0.05102539 C14.09220231 0.05603863 15.58113473 0.06060184 17.07006836 0.06469727 C20.72700223 0.07574446 24.38387707 0.09301826 28.04077148 0.11352539 C28.08331505 2.11307285 28.08157931 4.11394175 28.04077148 6.11352539 C26.1575788 7.99671807 22.92147011 7.24406824 20.41577148 7.24633789 C19.75367676 7.24729462 19.09158203 7.24825134 18.40942383 7.24923706 C17.00724187 7.24991865 15.60505678 7.24806581 14.20288086 7.24389648 C12.04981435 7.23854785 9.89695646 7.24384209 7.74389648 7.25024414 C6.38452102 7.24958336 5.02514569 7.24830218 3.66577148 7.24633789 C2.42053711 7.24520996 1.17530273 7.24408203 -0.10766602 7.24291992 C-2.95922852 7.11352539 -2.95922852 7.11352539 -3.95922852 6.11352539 C-4.08422852 3.61352539 -4.08422852 3.61352539 -3.95922852 1.11352539 C-2.95922852 0.11352539 -2.95922852 0.11352539 0 0 Z "
     fill="#0E677C"
     transform="translate(249.959228515625,84.886474609375)"
     id="path36" />
  <path
     d="M0 0 C2.9375 1.625 2.9375 1.625 5 4 C5.625 6.9375 5.625 6.9375 5 10 C2.36788535 13.66900829 0.91145674 14.84009531 -3.5625 15.625 C-7 15 -7 15 -9.4375 12.875 C-11.26836859 9.50620179 -11.64250722 7.77472994 -11 4 C-8.05127687 -0.48205916 -5.14006617 -0.7214128 0 0 Z "
     fill="#FCEAEE"
     transform="translate(272,457)"
     id="path37" />
  <path
     d="M0 0 C4.2529249 0.58661033 5.88958853 1.18434973 8.625 4.5 C9.31544625 7.51010339 9.07838908 9.32627645 8.625 12.5 C6.34545596 15.41781637 4.79936907 15.47820387 1.125 15.9375 C-2.375 15.5 -2.375 15.5 -4.8125 13.9375 C-6.96379747 10.58147594 -6.86447291 8.41578329 -6.375 4.5 C-4.79781803 0.88175902 -3.93811566 0.58342454 0 0 Z "
     fill="#FCECEF"
     transform="translate(242.375,456.5)"
     id="path38" />
  <path
     d="M0 0 C1.32 0 2.64 0 4 0 C3.91740329 2.80828805 3.44224482 4.52400492 1.515625 6.59765625 C-4.01121136 11.40411437 -7.49402482 13.28869135 -15 13 C-16.76462683 9.91190305 -17 8.76687864 -17 5 C-15.85660156 4.72285156 -14.71320313 4.44570313 -13.53515625 4.16015625 C-12.04422535 3.79445622 -10.55334239 3.42856071 -9.0625 3.0625 C-8.30775391 2.88009766 -7.55300781 2.69769531 -6.77539062 2.50976562 C-3.08720179 1.86160821 -3.08720179 1.86160821 0 0 Z "
     fill="#044859"
     transform="translate(445,438)"
     id="path39" />
  <path
     d="M0 0 C0.3125 2.3125 0.3125 2.3125 0 5 C-7.24928563 10.9312337 -17.12832283 10.53242201 -26 11 C-25.67 9.35 -25.34 7.7 -25 6 C-24.43490723 5.85377197 -23.86981445 5.70754395 -23.28759766 5.55688477 C-20.73279251 4.89440135 -18.17889227 4.22849346 -15.625 3.5625 C-14.73554688 3.33240234 -13.84609375 3.10230469 -12.9296875 2.86523438 C-11.65351563 2.53168945 -11.65351563 2.53168945 -10.3515625 2.19140625 C-9.56604004 1.98717041 -8.78051758 1.78293457 -7.97119141 1.57250977 C-2.55692964 0 -2.55692964 0 0 0 Z "
     fill="#075067"
     transform="translate(461,462)"
     id="path40" />
  <path
     d="M0 0 C-0.33 1.65 -0.66 3.3 -1 5 C-5.00091404 5.74984705 -8.76749517 6.1195296 -12.8359375 6.09765625 C-13.89941406 6.09443359 -14.96289062 6.09121094 -16.05859375 6.08789062 C-17.15300781 6.07951172 -18.24742187 6.07113281 -19.375 6.0625 C-20.49261719 6.05798828 -21.61023438 6.05347656 -22.76171875 6.04882812 C-25.50786804 6.03709244 -28.25390586 6.02067363 -31 6 C-31 5.34 -31 4.68 -31 4 C-37.6 4 -44.2 4 -51 4 C-51 3.67 -51 3.34 -51 3 C-49.81579468 2.970271 -49.81579468 2.970271 -48.60766602 2.93994141 C-28.34197096 2.43493822 -28.34197096 2.43493822 -8.1875 0.40234375 C-5.40975272 0.05172124 -2.79399065 -0.07937473 0 0 Z "
     fill="#00121C"
     transform="translate(296,364)"
     id="path41" />
  <path
     d="M0 0 C2.0625 0.4375 2.0625 0.4375 4 1 C3.84765625 3.33203125 3.84765625 3.33203125 3 6 C0.55859375 7.51171875 0.55859375 7.51171875 -2.5625 8.6875 C-3.65046875 9.09742188 -4.7384375 9.50734375 -5.859375 9.9296875 C-12.01978246 12.02912984 -17.46814085 13.2721608 -24 13 C-24 11.68 -24 10.36 -24 9 C-23.17757813 8.84144531 -22.35515625 8.68289063 -21.5078125 8.51953125 C-9.88424746 6.21423776 -9.88424746 6.21423776 0 0 Z "
     fill="#08576E"
     transform="translate(456,450)"
     id="path42" />
  <path
     d="M0 0 C6.06824526 1.65865371 10.66023361 3.33475113 15 8 C15.875 11.3125 15.875 11.3125 16 14 C15.67 13.01 15.34 12.02 15 11 C12.49552484 9.78130071 12.49552484 9.78130071 10 9 C10 10.32 10 11.64 10 13 C6.56466156 12.70554242 4.97701716 11.98263518 2.1875 9.875 C-0.51064497 6.32886661 -0.42669527 4.35229172 0 0 Z "
     fill="#14A7C5"
     transform="translate(85,495)"
     id="path43" />
  <path
     d="M0 0 C3.80718548 0.72753266 7.55485569 1.61276572 11.3125 2.5625 C12.38113281 2.83191406 13.44976562 3.10132813 14.55078125 3.37890625 C15.76314453 3.68634766 15.76314453 3.68634766 17 4 C16.67 5.65 16.34 7.3 16 9 C5.32728444 9.37302695 5.32728444 9.37302695 1 7 C0 6 0 6 -0.0625 2.9375 C-0.041875 1.968125 -0.02125 0.99875 0 0 Z "
     fill="#09485F"
     transform="translate(85,447)"
     id="path44" />
  <path
     d="M0 0 C2.95422595 1.07426398 5.2776325 2.19313565 7.875 4 C13.46872588 7.35373274 20.62876469 7.37681611 27 8 C27 8.99 27 9.98 27 11 C17.61947271 11.5893525 9.84186867 10.5031476 1.6875 5.61328125 C1.130625 5.08089844 0.57375 4.54851562 0 4 C0 2.68 0 1.36 0 0 Z "
     fill="#0D516B"
     transform="translate(76,456)"
     id="path45" />
  <path
     d="M0 0 C1.175625 0.0825 2.35125 0.165 3.5625 0.25 C5.71752531 3.48253796 6.03106135 4.50150923 5.5625 8.25 C4.375 10.125 4.375 10.125 2.5625 11.25 C-0.77942692 11.00546876 -2.04293557 10.64456443 -4.4375 8.25 C-4.625 4.6875 -4.625 4.6875 -4.4375 1.25 C-3.4375 0.25 -3.4375 0.25 0 0 Z "
     fill="#1A9BB7"
     transform="translate(366.4375,410.75)"
     id="path46" />
  <path
     d="M0 0 C2.76814393 1.09048094 5.48417465 2.22310009 8.1875 3.46875 C12.02316412 5.11663882 15.84219708 5.95203343 19.9375 6.6875 C20.96327148 6.88182617 20.96327148 6.88182617 22.00976562 7.08007812 C23.67183798 7.39389598 25.33574127 7.69799166 27 8 C27 9.32 27 10.64 27 12 C21.98130791 11.28304399 17.23001141 10.041045 12.375 8.625 C11.24964844 8.31175781 11.24964844 8.31175781 10.1015625 7.9921875 C2.77320961 5.86124801 2.77320961 5.86124801 0 3 C0 2.01 0 1.02 0 0 Z "
     fill="#0F6681"
     transform="translate(73,466)"
     id="path47" />
  <path
     d="M0 0 C1 1 1 1 1.1875 3.9375 C1 7 1 7 -1 9 C-4.5625 9.1875 -4.5625 9.1875 -8 9 C-9 8 -9 8 -9.25 5.125 C-9 2 -9 2 -7.875 0.0625 C-5.04805609 -1.53943488 -3.05073223 -0.79584319 0 0 Z "
     fill="#E4E9EF"
     transform="translate(317,205)"
     id="path49" />
  <path
     d="M0 0 C0.99 0 1.98 0 3 0 C4.50156874 3.00313748 4.09281204 5.79067522 4.0625 9.125 C4.05347656 10.40632813 4.04445313 11.68765625 4.03515625 13.0078125 C4.02355469 13.99523437 4.01195312 14.98265625 4 16 C2.68 16 1.36 16 0 16 C-2.25980539 11.48038922 -2.31983581 7.95745506 -2 3 C-1.34 2.01 -0.68 1.02 0 0 Z "
     fill="#084254"
     transform="translate(391,405)"
     id="path50" />
  <path
     d="M0 0 C0 1.32 0 2.64 0 4 C-2.3125 6 -2.3125 6 -5 8 C-6.76323505 10.12603185 -6.76323505 10.12603185 -8 12 C-9.32 11.67 -10.64 11.34 -12 11 C-11.80244399 6.75254576 -11.24463336 5.25575306 -8.25 2.125 C-5.0005274 0.00034484 -3.75572342 -0.55231227 0 0 Z "
     fill="#011A24"
     transform="translate(449,495)"
     id="path51" />
  <path
     d="M0 0 C7.15595346 0.70156407 14.01855181 2.30785021 21 4 C20.67 5.32 20.34 6.64 20 8 C15.65002079 7.51666898 11.44309474 6.71780188 7.1875 5.6875 C6.25292969 5.46449219 5.31835938 5.24148438 4.35546875 5.01171875 C2 4 2 4 0.67578125 1.89453125 C0.45277344 1.26933594 0.22976562 0.64414062 0 0 Z "
     fill="#0D5E75"
     transform="translate(74,479)"
     id="path52" />
  <path
     d="M0 0 C0 1.65 0 3.3 0 5 C-5.61 5.66 -11.22 6.32 -17 7 C-17 6.01 -17 5.02 -17 4 C-15.10751181 3.32389577 -13.2108398 2.65949561 -11.3125 2 C-10.25675781 1.62875 -9.20101563 1.2575 -8.11328125 0.875 C-5.21637944 0.0608143 -2.98299377 -0.17709796 0 0 Z "
     fill="#044F66"
     transform="translate(457,476)"
     id="path54" />
  <path
     d="M0 0 C2.5 0.25 2.5 0.25 4.5 2.25 C4.8125 4.75 4.8125 4.75 4.5 7.25 C1.27786243 9.39809171 0.22224599 9.54386153 -3.5 9.25 C-4.5 8.25 -4.5 8.25 -4.6875 5.3125 C-4.45388199 1.49673913 -3.88335294 0.38833529 0 0 Z "
     fill="#E5ECF3"
     transform="translate(186.5,203.75)"
     id="path55" />
  <path
     d="M0 0 C2.5625 0.1875 2.5625 0.1875 4.5625 2.1875 C4.75 4.75 4.75 4.75 4.5625 7.1875 C3.5625 8.1875 3.5625 8.1875 0.5625 8.3125 C-2.4375 8.1875 -2.4375 8.1875 -3.4375 7.1875 C-3.5625 4.1875 -3.5625 4.1875 -3.4375 1.1875 C-2.4375 0.1875 -2.4375 0.1875 0 0 Z "
     fill="#2397AF"
     transform="translate(156.4375,439.8125)"
     id="path58" />
  <path
     d="M0 0 C3.14330223 0.3492558 4.79491452 0.83925733 7.3125 2.8125 C9 5 9 5 9 9 C5.85669777 8.6507442 4.20508548 8.16074267 1.6875 6.1875 C0 4 0 4 0 0 Z "
     fill="#00141F"
     transform="translate(86,499)"
     id="path60" />
  <path
     d="M0 0 C0.99 0 1.98 0 3 0 C3.0810206 2.10353495 3.13919907 4.20795952 3.1875 6.3125 C3.22230469 7.48425781 3.25710937 8.65601563 3.29296875 9.86328125 C3 13 3 13 0 16 C0 10.72 0 5.44 0 0 Z "
     fill="#084557"
     transform="translate(133,408)"
     id="path61" />
  <path
     d="M0 0 C1.65 0 3.3 0 5 0 C5.33 1.65 5.66 3.3 6 5 C1.25 6.125 1.25 6.125 -1 5 C-0.67 3.35 -0.34 1.7 0 0 Z "
     fill="#34A7B9"
     transform="translate(154,425)"
     id="path64" />
  <path
     d="M0 0 C1.67542976 0.28604898 3.34385343 0.61781233 5 1 C4.67 2.65 4.34 4.3 4 6 C2.0625 6.5625 2.0625 6.5625 0 7 C-1 6 -1 6 -1.125 3.5 C-1 1 -1 1 0 0 Z "
     fill="#E0394C"
     transform="translate(366,429)"
     id="path65" />
  <path
     d="M0 0 C0.33 0 0.66 0 1 0 C1.47792208 5.37662338 1.47792208 5.37662338 -0.4375 7.875 C-4.25144551 9.5494151 -7.89579485 9.23678107 -12 9 C-12 8.67 -12 8.34 -12 8 C-11.07767578 7.76216797 -11.07767578 7.76216797 -10.13671875 7.51953125 C-4.82475182 6.07878816 -4.82475182 6.07878816 -1 2.3125 C-0.505 1.1678125 -0.505 1.1678125 0 0 Z "
     fill="#23C1D9"
     transform="translate(329,224)"
     id="path69" />
  <path
     d="M0 0 C1.32 0 2.64 0 4 0 C4 0.66 4 1.32 4 2 C0.79619983 4.13586678 -0.01939967 4.23132175 -3.6875 4.125 C-4.89986328 4.09792969 -4.89986328 4.09792969 -6.13671875 4.0703125 C-7.05904297 4.03550781 -7.05904297 4.03550781 -8 4 C-8 3.34 -8 2.68 -8 2 C-5.36 2 -2.72 2 0 2 C0 1.34 0 0.68 0 0 Z "
     fill="#23B2C9"
     transform="translate(197,230)"
     id="path72" />
  <path
     d="M0 0 C1.67542976 0.28604898 3.34385343 0.61781233 5 1 C3.3545622 2.68762851 1.68711423 4.3540349 0 6 C-0.33 6 -0.66 6 -1 6 C-1.042721 4.33388095 -1.04063832 2.66617115 -1 1 C-0.67 0.67 -0.34 0.34 0 0 Z "
     fill="#0C2630"
     transform="translate(184,213)"
     id="path77" />
  <path
     d="M0 0 C1.98 0 3.96 0 6 0 C6 0.99 6 1.98 6 3 C3.5 4.6875 3.5 4.6875 1 6 C1.33 4.35 1.66 2.7 2 1 C1.34 0.67 0.68 0.34 0 0 Z "
     fill="#CD9C0E"
     transform="translate(291,115)"
     id="path79" />
  <path
     d="M0 0 C3.63 0 7.26 0 11 0 C11 0.99 11 1.98 11 3 C7.31733897 2.40049704 3.65456815 1.75241109 0 1 C0 0.67 0 0.34 0 0 Z "
     fill="#D0EBF4"
     transform="translate(114,180)"
     id="path80" />
  <path
     d="M0 0 C0 1.98 0 3.96 0 6 C-0.99 6.33 -1.98 6.66 -3 7 C-3.6875 5.1875 -3.6875 5.1875 -4 3 C-1.64285714 0 -1.64285714 0 0 0 Z "
     fill="#CAA202"
     transform="translate(228,114)"
     id="path82" />
  <path
     d="M0 0 C1.32 0 2.64 0 4 0 C4 1.32 4 2.64 4 4 C2.68 4 1.36 4 0 4 C-0.33 3.01 -0.66 2.02 -1 1 C-0.67 0.67 -0.34 0.34 0 0 Z "
     fill="#15647C"
     transform="translate(96,474)"
     id="path83" />
</svg>
